<mxfile host="app.diagrams.net" agent="Mozilla/5.0 (Windows NT 10.0; Win64; x64) AppleWebKit/537.36 (KHTML, like Gecko) Chrome/136.0.0.0 Safari/537.36" version="26.2.15">
  <diagram name="第 1 页" id="OApUcptiOaTgmL8kj1Xy">
    <mxGraphModel dx="1554" dy="865" grid="0" gridSize="10" guides="1" tooltips="1" connect="1" arrows="1" fold="1" page="0" pageScale="1" pageWidth="827" pageHeight="1169" math="0" shadow="0">
      <root>
        <mxCell id="0" />
        <mxCell id="1" parent="0" />
        <mxCell id="YqEswqzOB8114SPmEK5O-79" value="" style="rounded=0;whiteSpace=wrap;html=1;fillColor=#d5e8d4;strokeColor=#82b366;" parent="1" vertex="1">
          <mxGeometry x="222" y="182" width="393" height="356" as="geometry" />
        </mxCell>
        <mxCell id="YqEswqzOB8114SPmEK5O-9" style="edgeStyle=orthogonalEdgeStyle;rounded=0;orthogonalLoop=1;jettySize=auto;html=1;exitX=0.5;exitY=1;exitDx=0;exitDy=0;exitPerimeter=0;entryX=0;entryY=0.5;entryDx=0;entryDy=0;" parent="1" source="YqEswqzOB8114SPmEK5O-3" target="YqEswqzOB8114SPmEK5O-8" edge="1">
          <mxGeometry relative="1" as="geometry" />
        </mxCell>
        <mxCell id="YqEswqzOB8114SPmEK5O-3" value="社媒数据库" style="shape=cylinder3;whiteSpace=wrap;html=1;boundedLbl=1;backgroundOutline=1;size=15;fillColor=#e1d5e7;strokeColor=#9673a6;" parent="1" vertex="1">
          <mxGeometry x="80" y="80" width="60" height="80" as="geometry" />
        </mxCell>
        <mxCell id="YqEswqzOB8114SPmEK5O-13" style="edgeStyle=orthogonalEdgeStyle;rounded=0;orthogonalLoop=1;jettySize=auto;html=1;exitX=0.5;exitY=1;exitDx=0;exitDy=0;exitPerimeter=0;entryX=1;entryY=0.5;entryDx=0;entryDy=0;" parent="1" source="YqEswqzOB8114SPmEK5O-4" target="YqEswqzOB8114SPmEK5O-10" edge="1">
          <mxGeometry relative="1" as="geometry" />
        </mxCell>
        <mxCell id="YqEswqzOB8114SPmEK5O-16" value="代币链上信息" style="edgeLabel;html=1;align=center;verticalAlign=middle;resizable=0;points=[];" parent="YqEswqzOB8114SPmEK5O-13" vertex="1" connectable="0">
          <mxGeometry x="0.246" y="-2" relative="1" as="geometry">
            <mxPoint as="offset" />
          </mxGeometry>
        </mxCell>
        <mxCell id="YqEswqzOB8114SPmEK5O-4" value="链上数据库" style="shape=cylinder3;whiteSpace=wrap;html=1;boundedLbl=1;backgroundOutline=1;size=15;fillColor=#e1d5e7;strokeColor=#9673a6;" parent="1" vertex="1">
          <mxGeometry x="680" y="70" width="60" height="80" as="geometry" />
        </mxCell>
        <mxCell id="YqEswqzOB8114SPmEK5O-11" style="edgeStyle=orthogonalEdgeStyle;rounded=0;orthogonalLoop=1;jettySize=auto;html=1;exitX=1;exitY=0.5;exitDx=0;exitDy=0;entryX=0;entryY=0.5;entryDx=0;entryDy=0;" parent="1" source="YqEswqzOB8114SPmEK5O-8" target="YqEswqzOB8114SPmEK5O-10" edge="1">
          <mxGeometry relative="1" as="geometry" />
        </mxCell>
        <mxCell id="YqEswqzOB8114SPmEK5O-12" value="TokenAddress" style="edgeLabel;html=1;align=center;verticalAlign=middle;resizable=0;points=[];" parent="YqEswqzOB8114SPmEK5O-11" vertex="1" connectable="0">
          <mxGeometry x="0.0436" y="3" relative="1" as="geometry">
            <mxPoint as="offset" />
          </mxGeometry>
        </mxCell>
        <mxCell id="YqEswqzOB8114SPmEK5O-8" value="队列：first_queue" style="rounded=0;whiteSpace=wrap;html=1;" parent="1" vertex="1">
          <mxGeometry x="240" y="200" width="120" height="60" as="geometry" />
        </mxCell>
        <mxCell id="YqEswqzOB8114SPmEK5O-19" style="edgeStyle=orthogonalEdgeStyle;rounded=0;orthogonalLoop=1;jettySize=auto;html=1;exitX=0.5;exitY=1;exitDx=0;exitDy=0;entryX=0.5;entryY=0;entryDx=0;entryDy=0;" parent="1" source="YqEswqzOB8114SPmEK5O-10" target="YqEswqzOB8114SPmEK5O-18" edge="1">
          <mxGeometry relative="1" as="geometry" />
        </mxCell>
        <mxCell id="YqEswqzOB8114SPmEK5O-21" value="社媒+链上信息" style="edgeLabel;html=1;align=center;verticalAlign=middle;resizable=0;points=[];" parent="YqEswqzOB8114SPmEK5O-19" vertex="1" connectable="0">
          <mxGeometry x="-0.265" y="-2" relative="1" as="geometry">
            <mxPoint as="offset" />
          </mxGeometry>
        </mxCell>
        <mxCell id="YqEswqzOB8114SPmEK5O-10" value="查询链上信息" style="shape=process;whiteSpace=wrap;html=1;backgroundOutline=1;fillColor=#dae8fc;strokeColor=#6c8ebf;" parent="1" vertex="1">
          <mxGeometry x="470" y="200" width="120" height="60" as="geometry" />
        </mxCell>
        <mxCell id="YqEswqzOB8114SPmEK5O-14" style="edgeStyle=orthogonalEdgeStyle;rounded=0;orthogonalLoop=1;jettySize=auto;html=1;exitX=0.5;exitY=0;exitDx=0;exitDy=0;entryX=0.5;entryY=0;entryDx=0;entryDy=0;entryPerimeter=0;" parent="1" source="YqEswqzOB8114SPmEK5O-10" target="YqEswqzOB8114SPmEK5O-4" edge="1">
          <mxGeometry relative="1" as="geometry" />
        </mxCell>
        <mxCell id="YqEswqzOB8114SPmEK5O-15" value="TokenAddress" style="edgeLabel;html=1;align=center;verticalAlign=middle;resizable=0;points=[];" parent="YqEswqzOB8114SPmEK5O-14" vertex="1" connectable="0">
          <mxGeometry x="-0.4651" y="3" relative="1" as="geometry">
            <mxPoint as="offset" />
          </mxGeometry>
        </mxCell>
        <mxCell id="YqEswqzOB8114SPmEK5O-17" value="代币地址&lt;div&gt;流动池地址&lt;/div&gt;&lt;div&gt;池创建时间&lt;/div&gt;&lt;div&gt;代币符号&lt;/div&gt;&lt;div&gt;精度&lt;/div&gt;&lt;div&gt;&lt;br&gt;&lt;/div&gt;&lt;div&gt;&lt;b&gt;流动性&lt;/b&gt;&lt;br&gt;（考虑实时监听并更新到数据库）&lt;/div&gt;" style="text;html=1;align=center;verticalAlign=middle;resizable=0;points=[];autosize=1;strokeColor=none;fillColor=none;" parent="1" vertex="1">
          <mxGeometry x="700" y="100" width="200" height="130" as="geometry" />
        </mxCell>
        <mxCell id="YqEswqzOB8114SPmEK5O-23" style="edgeStyle=orthogonalEdgeStyle;rounded=0;orthogonalLoop=1;jettySize=auto;html=1;exitX=0.5;exitY=1;exitDx=0;exitDy=0;entryX=0.5;entryY=0;entryDx=0;entryDy=0;" parent="1" source="YqEswqzOB8114SPmEK5O-18" target="YqEswqzOB8114SPmEK5O-22" edge="1">
          <mxGeometry relative="1" as="geometry" />
        </mxCell>
        <mxCell id="YqEswqzOB8114SPmEK5O-18" value="队列：media_chain_queue" style="rounded=0;whiteSpace=wrap;html=1;" parent="1" vertex="1">
          <mxGeometry x="470" y="340" width="120" height="60" as="geometry" />
        </mxCell>
        <mxCell id="YqEswqzOB8114SPmEK5O-26" style="edgeStyle=orthogonalEdgeStyle;rounded=0;orthogonalLoop=1;jettySize=auto;html=1;exitX=0.5;exitY=1;exitDx=0;exitDy=0;entryX=0.5;entryY=0;entryDx=0;entryDy=0;" parent="1" source="YqEswqzOB8114SPmEK5O-22" target="YqEswqzOB8114SPmEK5O-25" edge="1">
          <mxGeometry relative="1" as="geometry" />
        </mxCell>
        <mxCell id="YqEswqzOB8114SPmEK5O-52" value="社媒+链上信息+策略" style="edgeLabel;html=1;align=center;verticalAlign=middle;resizable=0;points=[];" parent="YqEswqzOB8114SPmEK5O-26" vertex="1" connectable="0">
          <mxGeometry x="0.1251" y="-3" relative="1" as="geometry">
            <mxPoint as="offset" />
          </mxGeometry>
        </mxCell>
        <mxCell id="YqEswqzOB8114SPmEK5O-22" value="策略拉取" style="shape=process;whiteSpace=wrap;html=1;backgroundOutline=1;" parent="1" vertex="1">
          <mxGeometry x="470" y="470" width="120" height="60" as="geometry" />
        </mxCell>
        <mxCell id="YqEswqzOB8114SPmEK5O-28" style="edgeStyle=orthogonalEdgeStyle;rounded=0;orthogonalLoop=1;jettySize=auto;html=1;exitX=0.5;exitY=1;exitDx=0;exitDy=0;entryX=0.5;entryY=0;entryDx=0;entryDy=0;" parent="1" source="YqEswqzOB8114SPmEK5O-25" target="YqEswqzOB8114SPmEK5O-27" edge="1">
          <mxGeometry relative="1" as="geometry" />
        </mxCell>
        <mxCell id="YqEswqzOB8114SPmEK5O-25" value="队列：order_queue" style="rounded=0;whiteSpace=wrap;html=1;" parent="1" vertex="1">
          <mxGeometry x="470" y="585" width="120" height="60" as="geometry" />
        </mxCell>
        <mxCell id="YqEswqzOB8114SPmEK5O-46" style="edgeStyle=orthogonalEdgeStyle;rounded=0;orthogonalLoop=1;jettySize=auto;html=1;exitX=1;exitY=0.5;exitDx=0;exitDy=0;" parent="1" source="YqEswqzOB8114SPmEK5O-27" target="YqEswqzOB8114SPmEK5O-45" edge="1">
          <mxGeometry relative="1" as="geometry" />
        </mxCell>
        <mxCell id="YqEswqzOB8114SPmEK5O-63" style="edgeStyle=orthogonalEdgeStyle;rounded=0;orthogonalLoop=1;jettySize=auto;html=1;exitX=0;exitY=0.25;exitDx=0;exitDy=0;entryX=1;entryY=0.5;entryDx=0;entryDy=0;" parent="1" source="YqEswqzOB8114SPmEK5O-27" target="YqEswqzOB8114SPmEK5O-56" edge="1">
          <mxGeometry relative="1" as="geometry">
            <Array as="points">
              <mxPoint x="440" y="705" />
              <mxPoint x="440" y="587" />
            </Array>
          </mxGeometry>
        </mxCell>
        <mxCell id="YqEswqzOB8114SPmEK5O-64" value="订单" style="edgeLabel;html=1;align=center;verticalAlign=middle;resizable=0;points=[];" parent="YqEswqzOB8114SPmEK5O-63" vertex="1" connectable="0">
          <mxGeometry x="0.607" y="-1" relative="1" as="geometry">
            <mxPoint as="offset" />
          </mxGeometry>
        </mxCell>
        <mxCell id="YqEswqzOB8114SPmEK5O-27" value="交易中心" style="shape=process;whiteSpace=wrap;html=1;backgroundOutline=1;" parent="1" vertex="1">
          <mxGeometry x="470" y="690" width="120" height="60" as="geometry" />
        </mxCell>
        <mxCell id="YqEswqzOB8114SPmEK5O-30" value="订单归档数据库" style="shape=cylinder3;whiteSpace=wrap;html=1;boundedLbl=1;backgroundOutline=1;size=15;fillColor=#e1d5e7;strokeColor=#9673a6;" parent="1" vertex="1">
          <mxGeometry x="500" y="936" width="60" height="80" as="geometry" />
        </mxCell>
        <mxCell id="YqEswqzOB8114SPmEK5O-31" value="对于交易中心，不论成功与否，都将所有订单及其&lt;div&gt;所有信息归档到数据库（待完善）&lt;/div&gt;" style="text;html=1;align=left;verticalAlign=middle;resizable=0;points=[];autosize=1;strokeColor=none;fillColor=none;" parent="1" vertex="1">
          <mxGeometry x="590" y="956" width="290" height="40" as="geometry" />
        </mxCell>
        <mxCell id="YqEswqzOB8114SPmEK5O-37" value="TODO：&lt;div&gt;1. 完善链上数据库，实时监听流动性发生变化的交易对&lt;br&gt;2. 完善代币持仓数据库的数据计算&lt;/div&gt;&lt;div&gt;3. 完善订单归档数据库&lt;/div&gt;&lt;div&gt;4. 使用协程池执行监听，交易和记录/订单归档操作&lt;/div&gt;&lt;div&gt;5. 策略？&lt;/div&gt;&lt;div&gt;&lt;br&gt;&lt;/div&gt;&lt;div&gt;&lt;br&gt;&lt;/div&gt;" style="text;html=1;align=left;verticalAlign=middle;resizable=0;points=[];autosize=1;strokeColor=none;fillColor=none;" parent="1" vertex="1">
          <mxGeometry x="76" y="984" width="307" height="127" as="geometry" />
        </mxCell>
        <mxCell id="YqEswqzOB8114SPmEK5O-42" style="edgeStyle=orthogonalEdgeStyle;rounded=0;orthogonalLoop=1;jettySize=auto;html=1;exitX=0;exitY=0.5;exitDx=0;exitDy=0;entryX=0;entryY=0.5;entryDx=0;entryDy=0;" parent="1" source="YqEswqzOB8114SPmEK5O-38" target="YqEswqzOB8114SPmEK5O-40" edge="1">
          <mxGeometry relative="1" as="geometry" />
        </mxCell>
        <mxCell id="YqEswqzOB8114SPmEK5O-43" value="交易" style="edgeLabel;html=1;align=center;verticalAlign=middle;resizable=0;points=[];" parent="YqEswqzOB8114SPmEK5O-42" vertex="1" connectable="0">
          <mxGeometry x="-0.0431" y="-2" relative="1" as="geometry">
            <mxPoint as="offset" />
          </mxGeometry>
        </mxCell>
        <mxCell id="YqEswqzOB8114SPmEK5O-38" value="Monitor：监听已建仓的代币在市场中的价格&lt;div&gt;根据第一版的策略决策交易&lt;/div&gt;" style="rounded=0;whiteSpace=wrap;html=1;align=left;" parent="1" vertex="1">
          <mxGeometry x="164" y="647" width="160" height="60" as="geometry" />
        </mxCell>
        <mxCell id="YqEswqzOB8114SPmEK5O-74" style="edgeStyle=orthogonalEdgeStyle;rounded=0;orthogonalLoop=1;jettySize=auto;html=1;exitX=1;exitY=0.5;exitDx=0;exitDy=0;entryX=0.5;entryY=0;entryDx=0;entryDy=0;" parent="1" source="YqEswqzOB8114SPmEK5O-40" target="YqEswqzOB8114SPmEK5O-73" edge="1">
          <mxGeometry relative="1" as="geometry" />
        </mxCell>
        <mxCell id="YqEswqzOB8114SPmEK5O-40" value="Trader：进行建仓，加仓或建仓操作" style="rounded=0;whiteSpace=wrap;html=1;align=left;" parent="1" vertex="1">
          <mxGeometry x="164" y="727" width="160" height="60" as="geometry" />
        </mxCell>
        <mxCell id="YqEswqzOB8114SPmEK5O-45" value="代币持仓数据库" style="shape=cylinder3;whiteSpace=wrap;html=1;boundedLbl=1;backgroundOutline=1;size=15;fillColor=#e1d5e7;strokeColor=#9673a6;" parent="1" vertex="1">
          <mxGeometry x="710" y="680" width="60" height="80" as="geometry" />
        </mxCell>
        <mxCell id="YqEswqzOB8114SPmEK5O-47" value="包含持仓的代币信息：&lt;div&gt;买入和卖出价格&lt;/div&gt;&lt;div&gt;买入和卖出数量&lt;/div&gt;&lt;div&gt;利润和利润率（加权平均）&lt;br&gt;&lt;br&gt;&lt;b&gt;（细节有待优化）&lt;/b&gt;&lt;/div&gt;" style="text;html=1;align=left;verticalAlign=middle;resizable=0;points=[];autosize=1;strokeColor=none;fillColor=none;" parent="1" vertex="1">
          <mxGeometry x="780" y="650" width="170" height="100" as="geometry" />
        </mxCell>
        <mxCell id="YqEswqzOB8114SPmEK5O-49" value="交易记录" style="shape=cylinder3;whiteSpace=wrap;html=1;boundedLbl=1;backgroundOutline=1;size=15;" parent="1" vertex="1">
          <mxGeometry x="640" y="770" width="60" height="80" as="geometry" />
        </mxCell>
        <mxCell id="YqEswqzOB8114SPmEK5O-50" style="edgeStyle=orthogonalEdgeStyle;rounded=0;orthogonalLoop=1;jettySize=auto;html=1;exitX=1;exitY=0.75;exitDx=0;exitDy=0;entryX=0;entryY=0.5;entryDx=0;entryDy=0;entryPerimeter=0;" parent="1" source="YqEswqzOB8114SPmEK5O-27" target="YqEswqzOB8114SPmEK5O-49" edge="1">
          <mxGeometry relative="1" as="geometry" />
        </mxCell>
        <mxCell id="YqEswqzOB8114SPmEK5O-51" value="（&lt;b&gt;待实现&lt;/b&gt;）记录每一笔交易的信息：&lt;div&gt;代币地址，交易类型，数量，状态&lt;/div&gt;" style="text;html=1;align=left;verticalAlign=middle;resizable=0;points=[];autosize=1;strokeColor=none;fillColor=none;" parent="1" vertex="1">
          <mxGeometry x="720" y="800" width="220" height="40" as="geometry" />
        </mxCell>
        <mxCell id="YqEswqzOB8114SPmEK5O-53" value="&lt;div&gt;&lt;br&gt;&lt;/div&gt;&lt;div&gt;&lt;br&gt;&lt;/div&gt;" style="text;html=1;align=left;verticalAlign=middle;resizable=0;points=[];autosize=1;strokeColor=none;fillColor=none;" parent="1" vertex="1">
          <mxGeometry x="656" y="518" width="18" height="41" as="geometry" />
        </mxCell>
        <mxCell id="YqEswqzOB8114SPmEK5O-67" style="edgeStyle=orthogonalEdgeStyle;rounded=0;orthogonalLoop=1;jettySize=auto;html=1;exitX=0;exitY=0.5;exitDx=0;exitDy=0;entryX=0;entryY=0.75;entryDx=0;entryDy=0;" parent="1" source="YqEswqzOB8114SPmEK5O-56" target="YqEswqzOB8114SPmEK5O-40" edge="1">
          <mxGeometry relative="1" as="geometry">
            <Array as="points">
              <mxPoint x="112" y="587" />
              <mxPoint x="112" y="772" />
            </Array>
          </mxGeometry>
        </mxCell>
        <mxCell id="YqEswqzOB8114SPmEK5O-68" value="交易" style="edgeLabel;html=1;align=center;verticalAlign=middle;resizable=0;points=[];" parent="YqEswqzOB8114SPmEK5O-67" vertex="1" connectable="0">
          <mxGeometry x="-0.2313" y="-3" relative="1" as="geometry">
            <mxPoint as="offset" />
          </mxGeometry>
        </mxCell>
        <mxCell id="YqEswqzOB8114SPmEK5O-77" style="edgeStyle=orthogonalEdgeStyle;rounded=0;orthogonalLoop=1;jettySize=auto;html=1;exitX=1;exitY=0.75;exitDx=0;exitDy=0;entryX=0.75;entryY=0;entryDx=0;entryDy=0;" parent="1" source="YqEswqzOB8114SPmEK5O-56" target="YqEswqzOB8114SPmEK5O-73" edge="1">
          <mxGeometry relative="1" as="geometry" />
        </mxCell>
        <mxCell id="YqEswqzOB8114SPmEK5O-78" value="匹配失败" style="edgeLabel;html=1;align=center;verticalAlign=middle;resizable=0;points=[];" parent="YqEswqzOB8114SPmEK5O-77" vertex="1" connectable="0">
          <mxGeometry x="0.5749" y="-1" relative="1" as="geometry">
            <mxPoint as="offset" />
          </mxGeometry>
        </mxCell>
        <mxCell id="YqEswqzOB8114SPmEK5O-56" value="策略匹配：根据策略决策代币和购买/卖出数量（或由用户指定）" style="rounded=0;whiteSpace=wrap;html=1;align=left;" parent="1" vertex="1">
          <mxGeometry x="164" y="557" width="160" height="60" as="geometry" />
        </mxCell>
        <mxCell id="YqEswqzOB8114SPmEK5O-73" value="订单&lt;br&gt;归档&lt;br&gt;队列" style="rounded=0;whiteSpace=wrap;html=1;" parent="1" vertex="1">
          <mxGeometry x="368" y="806" width="67" height="116" as="geometry" />
        </mxCell>
        <mxCell id="YqEswqzOB8114SPmEK5O-75" style="edgeStyle=orthogonalEdgeStyle;rounded=0;orthogonalLoop=1;jettySize=auto;html=1;exitX=0.5;exitY=1;exitDx=0;exitDy=0;entryX=0;entryY=0;entryDx=0;entryDy=52.5;entryPerimeter=0;" parent="1" source="YqEswqzOB8114SPmEK5O-73" target="YqEswqzOB8114SPmEK5O-30" edge="1">
          <mxGeometry relative="1" as="geometry" />
        </mxCell>
        <mxCell id="YqEswqzOB8114SPmEK5O-76" value="由中间件完成" style="text;html=1;align=left;verticalAlign=middle;resizable=0;points=[];autosize=1;strokeColor=none;fillColor=none;" parent="1" vertex="1">
          <mxGeometry x="275" y="855" width="90" height="26" as="geometry" />
        </mxCell>
        <mxCell id="YqEswqzOB8114SPmEK5O-80" value="&lt;b&gt;&lt;font style=&quot;font-size: 19px;&quot;&gt;订单生成器&lt;/font&gt;&lt;/b&gt;" style="text;html=1;align=center;verticalAlign=middle;resizable=0;points=[];autosize=1;strokeColor=none;fillColor=none;" parent="1" vertex="1">
          <mxGeometry x="227" y="484" width="113" height="35" as="geometry" />
        </mxCell>
      </root>
    </mxGraphModel>
  </diagram>
</mxfile>
